<svg version="1.2" xmlns="http://www.w3.org/2000/svg" viewBox="0 0 100 100" width="100" height="100">
	<title>Новый проект</title>
	<style>
		tspan { white-space:pre } 
		.s0 { fill: #ffffff } 
		.s1 { fill: #da5f5f } 
		.t2 { font-size: 49px;fill: #ffffff;font-weight: 400;font-family: "Ubuntu-Regular", "Ubuntu" } 
	</style>
	<path id="Слой 4" class="s0" d="m49.5 65c-16.9 0-30.5-13.6-30.5-30.5 0-16.9 13.6-30.5 30.5-30.5 16.9 0 30.5 13.6 30.5 30.5 0 16.9-13.6 30.5-30.5 30.5z"/>
	<path id="Слой 5" class="s0" d="m50 92c-6.1 0-11-4.9-11-11 0-6.1 4.9-11 11-11 6.1 0 11 4.9 11 11 0 6.1-4.9 11-11 11z"/>
	<path id="Слой 6" class="s1" d="m49.5 61c-14.7 0-26.5-11.8-26.5-26.5 0-14.7 11.8-26.5 26.5-26.5 14.7 0 26.5 11.8 26.5 26.5 0 14.7-11.8 26.5-26.5 26.5z"/>
	<path id="Слой 7" class="s1" d="m50 90c-5 0-9-4-9-9 0-5 4-9 9-9 5 0 9 4 9 9 0 5-4 9-9 9z"/>
	<text id="г" style="transform: matrix(1,0,0,1,39,7)" >
		<tspan x="0" y="38" class="t2">г
</tspan>
	</text>
</svg>